<svg width="24.000000" height="24.000000" viewBox="0 0 24 24" fill="none" xmlns="http://www.w3.org/2000/svg" xmlns:xlink="http://www.w3.org/1999/xlink">
	<desc>
			Created with Pixso.
	</desc>
	<defs/>
	<rect id="Duplicate24" width="24.000000" height="24.000000" fill="#FFFFFF" fill-opacity="0"/>
	<path id="Vector" d="M20.03 6.21L16.28 2.46C16.21 2.39 16.12 2.34 16.03 2.3C15.94 2.26 15.84 2.24 15.75 2.25L8.25 2.25C7.85 2.25 7.47 2.4 7.18 2.68C6.9 2.97 6.75 3.35 6.75 3.75L6.75 5.25L5.25 5.25C4.85 5.25 4.47 5.4 4.18 5.68C3.9 5.97 3.75 6.35 3.75 6.75L3.75 20.25C3.75 20.64 3.9 21.02 4.18 21.31C4.47 21.59 4.85 21.75 5.25 21.75L15.75 21.75C16.14 21.75 16.52 21.59 16.81 21.31C17.09 21.02 17.25 20.64 17.25 20.25L17.25 18.75L18.75 18.75C19.14 18.75 19.52 18.59 19.81 18.31C20.09 18.02 20.25 17.64 20.25 17.25L20.25 6.75C20.25 6.65 20.23 6.55 20.19 6.46C20.15 6.37 20.1 6.28 20.03 6.21ZM15.75 20.25L5.25 20.25L5.25 6.75L12.43 6.75L15.75 10.06L15.75 17.98C15.75 17.99 15.75 17.99 15.75 18C15.75 18 15.75 18 15.75 18.01L15.75 20.25ZM18.75 17.25L17.25 17.25L17.25 9.75C17.25 9.65 17.23 9.55 17.19 9.46C17.15 9.37 17.1 9.28 17.03 9.21L13.28 5.46C13.21 5.39 13.12 5.34 13.03 5.3C12.94 5.26 12.84 5.24 12.75 5.25L8.25 5.25L8.25 3.75L15.43 3.75L18.75 7.06L18.75 17.25ZM13.5 14.25C13.5 14.44 13.42 14.63 13.28 14.78C13.13 14.92 12.94 15 12.75 15L8.25 15C8.05 15 7.86 14.92 7.71 14.78C7.57 14.63 7.5 14.44 7.5 14.25C7.5 14.05 7.57 13.86 7.71 13.71C7.86 13.57 8.05 13.5 8.25 13.5L12.75 13.5C12.94 13.5 13.13 13.57 13.28 13.71C13.42 13.86 13.5 14.05 13.5 14.25ZM13.5 17.25C13.5 17.44 13.42 17.63 13.28 17.78C13.13 17.92 12.94 18 12.75 18L8.25 18C8.05 18 7.86 17.92 7.71 17.78C7.57 17.63 7.5 17.44 7.5 17.25C7.5 17.05 7.57 16.86 7.71 16.71C7.86 16.57 8.05 16.5 8.25 16.5L12.75 16.5C12.94 16.5 13.13 16.57 13.28 16.71C13.42 16.86 13.5 17.05 13.5 17.25Z" fill="#757575" fill-opacity="1.000000" fill-rule="nonzero"/>
</svg>
